<?xml version="1.0" ?><svg id="Light" viewBox="0 0 24 24" xmlns="http://www.w3.org/2000/svg"><defs><style>.cls-1{fill:none;stroke:#000;stroke-linecap:round;stroke-linejoin:round;}</style></defs><title/><path class="cls-1" d="M15.5,14.75a.25.25,0,0,1,.25.25"/><path class="cls-1" d="M15.25,15a.25.25,0,0,1,.25-.25"/><path class="cls-1" d="M15.5,15.25a.25.25,0,0,1-.25-.25"/><path class="cls-1" d="M15.75,15a.25.25,0,0,1-.25.25"/><path class="cls-1" d="M14,3.5h3.5a4,4,0,0,1,4,4v3"/><polyline class="cls-1" points="16 5.5 14 3.5 16 1.5"/><path class="cls-1" d="M9.5,20.5h-3a4,4,0,0,1-4-4v-3"/><polyline class="cls-1" points="7.5 18.5 9.5 20.5 7.5 22.5"/><path class="cls-1" d="M17.5,20.5v-4a1,1,0,0,1,1-1h1"/><line class="cls-1" x1="17.5" x2="19" y1="18.5" y2="18.5"/><path class="cls-1" d="M4,4.25a.25.25,0,0,1,.25.25"/><path class="cls-1" d="M3.75,4.5A.25.25,0,0,1,4,4.25"/><path class="cls-1" d="M4,4.75a.25.25,0,0,1-.25-.25"/><path class="cls-1" d="M4.25,4.5A.25.25,0,0,1,4,4.75"/><path class="cls-1" d="M7.5,4.5a2,2,0,0,0-2,2v1a2,2,0,0,0,2,2"/><circle class="cls-1" cx="6.5" cy="6.5" r="6"/><circle class="cls-1" cx="17.5" cy="17.5" r="6"/></svg>